<?xml version="1.0" encoding="UTF-8" standalone="no"?>
<!DOCTYPE svg PUBLIC "-//W3C//DTD SVG 20010904//EN"
              "http://www.w3.org/TR/2001/REC-SVG-20010904/DTD/svg10.dtd">

<svg xmlns="http://www.w3.org/2000/svg"
     width="8.91667in" height="1.94444in"
     viewBox="0 0 642 140">
  <path fill="#f78a02" 
        d="M 111.00,113.02
           C 108.57,111.81 105.65,112.01 103.00,112.00
             103.00,112.00 21.00,112.00 21.00,112.00
             7.03,111.98 1.02,108.83 1.00,94.00
             1.00,94.00 1.00,18.00 1.00,18.00
             1.02,4.61 6.09,1.02 19.00,1.00
             19.00,1.00 122.00,1.00 122.00,1.00
             135.01,1.06 138.98,6.55 139.00,19.00
             139.00,19.00 139.00,139.00 139.00,139.00
             139.00,139.00 111.00,113.02 111.00,113.02 Z
           M 70.00,97.00
           C 72.00,97.00 75.67,97.26 77.28,96.01
             80.35,93.62 79.06,85.85 84.13,83.49
             87.99,81.68 92.51,84.97 95.99,84.50
             100.78,83.86 107.56,72.56 106.30,68.01
             105.02,63.38 98.43,61.74 99.37,56.00
             100.03,51.97 104.47,49.32 105.94,46.00
             107.71,41.98 102.62,33.12 99.47,30.60
             94.63,26.72 88.66,33.07 83.94,29.97
             76.45,25.06 83.20,16.23 71.00,16.00
             67.91,15.95 60.94,15.38 58.73,17.60
             56.00,20.34 57.32,27.28 51.94,29.94
             48.14,31.82 43.07,28.68 40.04,28.83
             35.86,29.02 30.64,38.28 29.75,42.00
             28.16,48.67 37.37,51.53 37.37,57.00
             37.37,62.79 28.38,64.56 29.69,71.01
             30.65,75.71 35.66,84.50 41.00,84.56
             44.98,84.60 48.91,81.49 52.86,83.98
             56.32,86.18 57.23,93.15 58.00,97.00
             58.00,97.00 70.00,97.00 70.00,97.00 Z
           M 77.00,43.74
           C 88.80,51.16 86.04,72.95 67.00,71.96
             51.03,71.12 47.47,49.40 62.00,42.70
             66.34,41.72 73.09,41.28 77.00,43.74 Z" />
  <path fill="#ffffff80"
        d="M 200.00,14.00
           C 203.25,14.00 208.10,13.65 210.96,15.17
             218.45,19.17 216.00,34.63 216.00,42.00
             216.00,42.00 208.84,42.00 208.84,42.00
             208.84,42.00 208.84,25.02 208.84,25.02
             207.97,22.27 205.34,19.40 202.31,21.08
             198.79,23.04 200.00,37.93 200.00,42.00
             200.00,42.00 193.00,42.00 193.00,42.00
             193.00,42.00 193.00,2.00 193.00,2.00
             193.00,2.00 199.00,1.00 199.00,1.00
             199.00,1.00 200.00,14.00 200.00,14.00 Z
           M 176.00,14.00
           C 182.92,14.01 185.42,13.09 186.00,20.00
             186.00,20.00 176.00,20.00 176.00,20.00
             176.00,29.70 174.05,35.85 186.00,36.00
             185.88,37.47 185.96,39.17 184.98,40.40
             181.98,44.19 172.59,41.70 170.45,37.89
             169.08,35.46 169.04,32.71 169.00,30.00
             169.00,30.00 169.00,7.00 169.00,7.00
             169.00,7.00 175.00,6.00 175.00,6.00
             175.00,6.00 176.00,14.00 176.00,14.00 Z
           M 236.00,41.98
           C 233.38,41.91 231.44,41.77 229.09,40.43
             220.83,35.72 221.10,22.08 228.10,16.43
             234.03,11.64 243.96,13.61 246.99,21.00
             248.16,23.85 247.99,26.99 248.00,30.00
             248.00,30.00 230.00,31.00 230.00,31.00
             235.37,37.27 238.49,36.35 246.00,35.00
             246.00,35.00 247.00,41.00 247.00,41.00
             242.70,42.04 240.40,42.12 236.00,41.98 Z
           M 230.00,25.00
           C 230.00,25.00 241.00,26.00 241.00,26.00
             239.65,17.94 233.64,18.77 230.00,25.00 Z" />
  <path fill="white"
        d="M 396.98,25.60
           C 398.23,27.19 398.00,31.01 398.00,33.00
             398.00,33.00 398.00,110.00 398.00,110.00
             384.30,113.08 363.07,116.53 351.00,107.45
             335.25,95.59 336.74,66.56 352.04,54.93
             361.41,47.80 370.07,49.00 381.00,49.00
             381.00,49.00 381.00,24.00 381.00,24.00
             384.29,24.00 395.02,23.12 396.98,25.60 Z
           M 467.98,25.60
           C 469.23,27.19 469.00,31.01 469.00,33.00
             469.00,33.00 469.00,110.00 469.00,110.00
             455.30,113.08 434.07,116.53 422.00,107.45
             406.25,95.59 407.74,66.56 423.04,54.93
             432.41,47.80 441.07,49.00 452.00,49.00
             452.00,49.00 452.00,24.00 452.00,24.00
             455.29,24.00 466.02,23.12 467.98,25.60 Z
           M 183.00,50.00
           C 183.00,50.00 185.00,58.00 185.00,58.00
             189.33,50.14 194.59,48.92 203.00,49.00
             206.18,49.04 209.06,49.15 212.00,50.57
             215.79,52.40 218.30,55.90 221.00,59.00
             222.83,55.15 225.09,52.41 229.00,50.45
             236.76,46.56 250.81,48.84 255.33,57.04
             258.71,63.17 258.00,70.27 258.00,77.00
             258.00,77.00 258.00,112.00 258.00,112.00
             248.31,113.28 250.69,113.28 241.00,112.00
             241.00,112.00 241.00,76.00 241.00,76.00
             240.94,72.02 240.65,67.45 236.79,65.17
             230.38,61.39 224.50,67.11 222.79,73.00
             222.79,73.00 222.00,112.00 222.00,112.00
             212.31,113.28 214.69,113.28 205.00,112.00
             205.00,112.00 205.00,81.00 205.00,81.00
             204.99,75.90 205.03,67.88 199.89,65.02
             193.75,61.61 187.89,67.39 186.35,73.00
             184.20,80.89 185.00,102.68 185.00,112.00
             175.31,113.28 177.69,113.28 168.00,112.00
             168.00,112.00 168.00,50.00 168.00,50.00
             175.19,48.71 175.81,48.71 183.00,50.00 Z
           M 318.96,54.53
           C 332.83,65.64 333.06,94.91 319.91,106.67
             313.00,112.85 305.66,113.10 297.00,113.00
             277.88,112.77 269.83,97.18 270.00,80.00
             270.07,73.13 271.57,65.68 275.64,60.00
             279.68,54.36 284.48,51.46 291.00,49.53
             300.13,48.04 311.46,48.52 318.96,54.53 Z
           M 535.34,108.58
           C 534.44,110.89 531.13,111.51 529.00,111.98
             523.09,113.30 517.02,113.07 511.00,113.00
             491.63,112.77 481.31,98.50 482.04,80.00
             482.34,72.39 485.03,62.82 490.33,57.18
             499.90,46.98 520.50,45.61 530.82,55.33
             539.93,63.91 539.00,74.70 539.00,86.00
             539.00,86.00 499.00,86.00 499.00,86.00
             500.86,95.73 508.32,100.52 518.00,99.82
             518.00,99.82 533.00,97.00 533.00,97.00
             533.83,99.53 536.27,106.18 535.34,108.58 Z
           M 567.00,50.00
           C 567.00,50.00 568.00,58.00 568.00,58.00
             571.64,54.45 584.15,44.07 588.99,51.31
             590.96,54.29 589.61,61.61 588.99,65.00
             585.25,64.81 580.43,64.47 577.04,66.31
             571.49,69.33 570.54,74.37 569.73,80.00
             569.73,80.00 569.00,112.00 569.00,112.00
             560.51,113.52 560.30,113.09 552.00,112.00
             552.00,112.00 552.00,50.00 552.00,50.00
             559.97,48.57 559.21,48.97 567.00,50.00 Z
           M 619.00,99.35
           C 622.09,98.36 625.52,95.80 624.34,92.10
             623.05,88.03 616.60,86.64 613.00,85.58
             606.28,83.59 600.36,81.26 597.99,74.00
             594.84,64.35 599.41,54.22 609.00,50.56
             613.99,48.66 619.73,48.94 625.00,49.00
             628.22,49.04 637.10,49.57 638.89,52.51
             640.40,54.99 637.86,61.36 637.00,64.00
             632.30,63.28 616.35,57.58 615.05,66.09
             614.21,71.61 625.28,73.35 629.00,74.70
             639.62,78.54 644.87,88.09 640.87,99.00
             635.78,112.87 622.30,113.14 610.00,113.00
             606.66,112.96 599.06,112.50 597.04,109.49
             595.12,106.64 597.99,100.04 599.00,97.00
             604.88,98.92 612.84,101.31 619.00,99.35 Z
           M 290.70,66.11
           C 283.94,75.18 284.77,104.96 303.98,99.57
             312.14,97.28 312.03,86.75 312.00,80.00
             311.95,68.92 308.99,60.49 296.00,62.43
             293.46,63.45 292.44,63.77 290.70,66.11 Z
           M 363.10,96.35
           C 366.17,98.68 377.20,100.91 379.98,97.40
             381.04,96.06 380.97,93.62 381.00,92.00
             381.00,92.00 381.00,69.00 381.00,69.00
             380.96,67.04 381.15,64.53 379.43,63.17
             377.21,61.43 371.66,62.03 369.00,62.39
             354.78,66.99 354.61,89.87 363.10,96.35 Z
           M 434.10,96.35
           C 437.17,98.68 448.20,100.91 450.98,97.40
             452.04,96.06 451.97,93.62 452.00,92.00
             452.00,92.00 452.00,69.00 452.00,69.00
             451.96,67.04 452.15,64.53 450.43,63.17
             448.21,61.43 442.66,62.03 440.00,62.39
             425.78,66.99 425.61,89.87 434.10,96.35 Z
           M 513.00,62.05
           C 510.14,61.86 506.60,61.99 504.21,63.74
             501.01,66.08 499.86,70.34 499.00,74.00
             499.00,74.00 523.00,74.00 523.00,74.00
             522.39,67.43 520.35,62.57 513.00,62.05 Z" />
</svg>
